Encoded by Team Ratzz{  Encoder - Ratzz  }



General
Complete name                    : Colombus Circle 2012 720p BluRay x264 Ratzz.mp4
Format                           : MP-4
Format profile                   : Base Media
Codec ID                         : isom
File size                        : 749 MiB
Duration                         : 1h 25mn
Overall bit rate                 : 1 220 Kbps
Encoded date                     : UTC 2012-03-03 09:35:54
Tagged date                      : UTC 2012-03-03 09:35:54

Video
ID                               : 1
Format                           : AVC
Format/Info                      : Advanced Video Codec
Format profile                   : High@L4.0
Format settings, CABAC           : Yes
Format settings, ReFrames        : 2 frames
Codec ID                         : avc1
Codec ID/Info                    : Advanced Video Coding
Duration                         : 1h 25mn
Bit rate mode                    : Variable
Bit rate                         : 1 154 Kbps
Maximum bit rate                 : 25.0 Mbps
Width                            : 1 280 pixels
Height                           : 536 pixels
Display aspect ratio             : 2.35:1
Frame rate mode                  : Constant
Frame rate                       : 23.976 fps
Color space                      : YUV
Chroma subsampling               : 4:2:0
Bit depth                        : 8 bits
Scan type                        : Progressive
Bits/(Pixel*Frame)               : 0.070
Stream size                      : 709 MiB (95%)
Title                            : Colombus Circle 2012 720p BluRay x264 Ratzz
Encoded date                     : UTC 2012-03-03 09:35:54
Tagged date                      : UTC 2012-03-03 09:36:27

Audio
ID                               : 2
Format                           : AAC
Format/Info                      : Advanced Audio Codec
Format profile                   : HE-AAC / LC
Codec ID                         : 40
Duration                         : 1h 25mn
Bit rate mode                    : Variable
Bit rate                         : 64.0 Kbps
Maximum bit rate                 : 71.0 Kbps
Channel(s)                       : 2 channels
Channel positions                : Front: L R
Sampling rate                    : 48.0 KHz / 24.0 KHz
Compression mode                 : Lossy
Stream size                      : 39.3 MiB (5%)
Language                         : English
Encoded date                     : UTC 2012-03-03 09:36:20
Tagged date                      : UTC 2012-03-03 09:36:27

Subtitle                         : eng .srt file included



pls seed after download.
thank you.